<?xml version="1.0" standalone="no"?>
<!DOCTYPE svg PUBLIC "-//W3C//DTD SVG 20010904//EN"
 "http://www.w3.org/TR/2001/REC-SVG-20010904/DTD/svg10.dtd">
<svg version="1.0" xmlns="http://www.w3.org/2000/svg"
 width="704.000000pt" height="704.000000pt" viewBox="0 0 704.000000 704.000000"
 preserveAspectRatio="xMidYMid meet">
<metadata>
Created by potrace 1.14, written by Peter Selinger 2001-2017
</metadata>
<g transform="translate(0.000000,704.000000) scale(0.100000,-0.100000)"
fill="#000000" stroke="none">
<path d="M1383 6585 c-29 -8 -72 -24 -94 -36 -53 -26 -131 -104 -157 -155 -11
-22 -251 -593 -534 -1269 l-513 -1230 0 -110 c0 -101 2 -115 28 -168 27 -55
129 -177 148 -177 5 0 4 11 -1 24 -19 51 -22 141 -7 202 15 56 993 2418 1042
2514 85 169 292 248 480 184 30 -11 360 -225 845 -547 437 -292 818 -539 845
-550 69 -26 201 -26 271 1 28 10 408 257 843 547 436 290 816 537 844 548 69
27 192 29 265 3 29 -10 73 -34 98 -53 26 -19 48 -32 51 -29 11 11 -51 92 -129
169 -88 88 -151 122 -253 140 -74 13 -162 -1 -228 -34 -21 -11 -393 -256 -825
-544 -492 -327 -806 -530 -837 -540 -29 -10 -81 -17 -125 -17 -44 0 -96 7
-125 17 -31 10 -345 213 -836 540 -433 288 -802 531 -820 541 -84 43 -184 54
-276 29z"/>
<path d="M1749 5705 c-113 -31 -214 -112 -262 -210 -49 -98 -696 -1661 -708
-1708 -7 -29 -10 -78 -6 -123 4 -61 13 -87 44 -147 37 -69 84 -114 1273 -1220
679 -631 1255 -1162 1279 -1179 133 -94 316 -98 448 -10 44 29 2459 2266 2513
2329 18 20 47 67 64 103 28 59 31 74 31 160 l-1 95 -348 835 c-191 459 -360
856 -374 883 -63 118 -214 207 -353 207 -115 0 -137 -12 -872 -502 -381 -254
-714 -470 -742 -481 -69 -28 -201 -28 -270 0 -27 11 -361 227 -742 481 -576
384 -702 464 -758 481 -75 23 -147 25 -216 6z m152 -1565 c79 -16 232 -48 339
-70 107 -22 359 -75 560 -116 201 -42 379 -82 397 -89 39 -17 53 -56 32 -94
-13 -23 -562 -389 -618 -412 -16 -7 -31 -5 -51 4 -31 16 -869 671 -887 695
-18 22 -16 72 4 94 22 25 56 23 224 -12z m3621 13 c21 -19 24 -72 6 -95 -21
-26 -870 -689 -895 -699 -13 -5 -32 -5 -45 1 -56 22 -604 389 -617 411 -18 32
-8 75 20 90 11 6 139 35 282 65 403 84 573 120 922 194 254 53 299 58 327 33z
m-1795 -1066 c141 -74 198 -240 130 -379 -30 -61 -65 -96 -131 -131 -55 -29
-183 -30 -236 -2 -88 46 -138 110 -160 202 -29 127 49 270 176 318 51 19 177
15 221 -8z"/>
</g>
</svg>
